<svg
    width="18"
    height="18"
    viewBox="0 0 48 48"
    xmlns="http://www.w3.org/2000/svg"
    focusable="false">
    <path
        fill="#EA4335"
        d="M24 9.5c3.9 0 7.2 1.4 9.8 3.8l7.3-7.3C36.6 2 30.6 0 24 0 14.6 0 6.7 5.4 2.8 13.0l8.8 6.8C13 13.0 18.1 9.5 24 9.5z" />
    <path
        fill="#4285F4"
        d="M46.5 24.5c0-1.7-.2-3.3-.6-4.9H24v9.4h12.7c-.6 3.2-2.6 6-5.6 7.8l8.7 6.8c5.1-4.7 7.7-11.6 7.7-19.1z" />
    <path
        fill="#FBBC05"
        d="M10.9 28.8a14.4 14.4 0 0 1 0-9.6L2.1 12.4A24 24 0 0 0 0 24c0 3.9.9 7.6 2.6 10.9l8.3-6.1z" />
    <path
        fill="#34A853"
        d="M24 48c6.6 0 12.6-2.2 17.3-6l-8.7-6.8C31 36.7 27.7 38 24 38c-5.9 0-11-3.5-13.1-8.4l-8.8 6.8C6.7 42.6 14.6 48 24 48z" />
</svg>